<svg xmlns="http://www.w3.org/2000/svg" xmlns:xlink="http://www.w3.org/1999/xlink" width="217" height="217" viewBox="0 0 217 217">
  <defs>
    <filter id="Ellipse_3" x="0" y="0" width="217" height="217" filterUnits="userSpaceOnUse">
      <feOffset dy="8" input="SourceAlpha"/>
      <feGaussianBlur stdDeviation="4" result="blur"/>
      <feFlood flood-opacity="0.161"/>
      <feComposite operator="in" in2="blur"/>
      <feComposite in="SourceGraphic"/>
    </filter>
  </defs>
  <g id="Group_21190" data-name="Group 21190" transform="translate(-570 -245)">
    <g transform="matrix(1, 0, 0, 1, 570, 245)" filter="url(#Ellipse_3)">
      <g id="Ellipse_3-2" data-name="Ellipse 3" transform="translate(12 4)" fill="#2f2110" stroke="#fff" stroke-width="1.5">
        <circle cx="96.5" cy="96.5" r="96.5" stroke="none"/>
        <circle cx="96.5" cy="96.5" r="95.75" fill="none"/>
      </g>
    </g>
    <g id="uuid-d670e9de-057d-4cec-9415-8f3867fa69d9" transform="translate(643.002 307)">
      <g id="Group_16" data-name="Group 16" transform="translate(-0.002)">
        <g id="Group_13" data-name="Group 13">
          <path id="Path_28" data-name="Path 28" d="M17.706,76c-.33,0-.659-.009-.992-.026A17.688,17.688,0,0,1,9.707,42.528V7.988a7.988,7.988,0,1,1,15.975,0v34.54A17.726,17.726,0,0,1,35.39,58.305,17.7,17.7,0,0,1,17.706,76ZM17.694,2.509a5.484,5.484,0,0,0-5.479,5.479V43.3a1.3,1.3,0,0,1-.745,1.164,15.211,15.211,0,0,0-8.963,13.96A15.385,15.385,0,0,0,16.849,73.466,15.189,15.189,0,0,0,32.881,58.3a15.216,15.216,0,0,0-8.968-13.845,1.256,1.256,0,0,1-.74-1.144V7.988A5.484,5.484,0,0,0,17.694,2.509Z" transform="translate(0.002)" fill="#fff"/>
          <path id="Path_29" data-name="Path 29" d="M58.6,79.85A1.252,1.252,0,0,1,57.35,78.6V26.473a1.253,1.253,0,1,1,2.506,0V78.6A1.252,1.252,0,0,1,58.6,79.85Z" transform="translate(-40.907 -17.989)" fill="#fff"/>
          <g id="Group_12" data-name="Group 12" transform="translate(30.389 14.229)">
            <path id="Path_30" data-name="Path 30" d="M112.232,127.876h-4.989a1.253,1.253,0,1,1,0-2.506h4.989a1.253,1.253,0,0,1,0,2.506Z" transform="translate(-105.99 -103.655)" fill="#fff"/>
            <path id="Path_31" data-name="Path 31" d="M112.232,90.016h-4.989a1.253,1.253,0,1,1,0-2.506h4.989a1.253,1.253,0,0,1,0,2.506Z" transform="translate(-105.99 -76.649)" fill="#fff"/>
            <path id="Path_32" data-name="Path 32" d="M112.232,52.139h-4.989a1.254,1.254,0,0,1,0-2.509h4.989a1.254,1.254,0,0,1,0,2.509Z" transform="translate(-105.99 -49.63)" fill="#fff"/>
          </g>
        </g>
        <g id="Group_15" data-name="Group 15" transform="translate(46.118 37.909)">
          <path id="Path_33" data-name="Path 33" d="M165.374,141.269a4.524,4.524,0,1,1,4.524-4.524A4.53,4.53,0,0,1,165.374,141.269Zm0-6.54a2.016,2.016,0,1,0,2.016,2.016A2.017,2.017,0,0,0,165.374,134.729Z" transform="translate(-160.85 -132.22)" fill="#fff"/>
          <g id="Group_14" data-name="Group 14" transform="translate(9.02 9.02)">
            <path id="Path_34" data-name="Path 34" d="M193.563,192.749a1.253,1.253,0,0,1-1.253-1.256V164.933a1.252,1.252,0,0,1,1.253-1.253h13.656a1.254,1.254,0,0,1,0,2.509h-12.4V191.5a1.255,1.255,0,0,1-1.253,1.256Z" transform="translate(-192.31 -163.68)" fill="#fff"/>
            <path id="Path_35" data-name="Path 35" d="M205.011,212.516H193.563a1.253,1.253,0,1,1,0-2.506h11.448a1.253,1.253,0,1,1,0,2.506Z" transform="translate(-192.31 -196.727)" fill="#fff"/>
          </g>
        </g>
      </g>
    </g>
  </g>
</svg>
