<svg xmlns="http://www.w3.org/2000/svg" xmlns:xlink="http://www.w3.org/1999/xlink" width="217" height="217" viewBox="0 0 217 217">
  <defs>
    <filter id="Ellipse_2" x="0" y="0" width="217" height="217" filterUnits="userSpaceOnUse">
      <feOffset dy="8" input="SourceAlpha"/>
      <feGaussianBlur stdDeviation="4" result="blur"/>
      <feFlood flood-opacity="0.161"/>
      <feComposite operator="in" in2="blur"/>
      <feComposite in="SourceGraphic"/>
    </filter>
  </defs>
  <g id="Group_21189" data-name="Group 21189" transform="translate(-249 -245)">
    <g transform="matrix(1, 0, 0, 1, 249, 245)" filter="url(#Ellipse_2)">
      <g id="Ellipse_2-2" data-name="Ellipse 2" transform="translate(12 4)" fill="#2f2110" stroke="#fff" stroke-width="1.5">
        <circle cx="96.5" cy="96.5" r="96.5" stroke="none"/>
        <circle cx="96.5" cy="96.5" r="95.75" fill="none"/>
      </g>
    </g>
    <g id="uuid-a032bbb9-6f6f-4bb8-b806-740df0c978d0" transform="translate(309 307)">
      <g id="Group_11" data-name="Group 11">
        <g id="Group_10" data-name="Group 10">
          <g id="Group_9" data-name="Group 9">
            <path id="Path_13" data-name="Path 13" d="M95.644,94.4H1.351A1.351,1.351,0,0,1,0,93.045V26.561A1.35,1.35,0,0,1,1.351,25.21H16.215a1.351,1.351,0,0,1,0,2.7H2.7V91.694H94.294V27.912h-13.9a1.351,1.351,0,0,1,0-2.7H95.644A1.35,1.35,0,0,1,97,26.561V93.048A1.353,1.353,0,0,1,95.644,94.4Z" transform="translate(0 -17.418)" fill="#fff"/>
            <path id="Path_14" data-name="Path 14" d="M124.4,27.912H75.931a1.351,1.351,0,1,1,0-2.7H124.4a1.351,1.351,0,0,1,0,2.7Z" transform="translate(-51.527 -17.418)" fill="#fff"/>
            <g id="Group_8" data-name="Group 8" transform="translate(15.381)">
              <path id="Path_15" data-name="Path 15" d="M54.706,18.283a4.952,4.952,0,0,1-4.946-4.946V4.946a4.946,4.946,0,1,1,9.891,0v8.392A4.95,4.95,0,0,1,54.706,18.283Zm0-15.579a2.243,2.243,0,0,0-2.241,2.241v8.392a2.241,2.241,0,1,0,4.482,0V4.946A2.243,2.243,0,0,0,54.706,2.7Z" transform="translate(-49.76)" fill="#fff"/>
              <path id="Path_16" data-name="Path 16" d="M236.986,18.283a4.952,4.952,0,0,1-4.946-4.946V4.946a4.946,4.946,0,1,1,9.891,0v8.392a4.95,4.95,0,0,1-4.946,4.946Zm0-15.579a2.243,2.243,0,0,0-2.241,2.241v8.392a2.241,2.241,0,0,0,4.482,0V4.946A2.243,2.243,0,0,0,236.986,2.7Z" transform="translate(-175.698)" fill="#fff"/>
            </g>
          </g>
          <path id="Path_17" data-name="Path 17" d="M95.644,70.495H1.351a1.352,1.352,0,0,1,0-2.7H95.641a1.352,1.352,0,0,1,0,2.7Z" transform="translate(0 -46.836)" fill="#fff"/>
        </g>
        <path id="Path_18" data-name="Path 18" d="M116.605,103.768h-9.619a1.838,1.838,0,0,1-1.836-1.836V94.956a1.836,1.836,0,0,1,1.836-1.836h9.619a1.838,1.838,0,0,1,1.836,1.836v6.976A1.836,1.836,0,0,1,116.605,103.768Zm-8.982-2.473h8.346V95.6h-8.346Z" transform="translate(-72.648 -64.337)" fill="#fff"/>
        <path id="Path_19" data-name="Path 19" d="M177.605,103.768h-9.619a1.838,1.838,0,0,1-1.836-1.836V94.956a1.836,1.836,0,0,1,1.836-1.836h9.619a1.838,1.838,0,0,1,1.836,1.836v6.976A1.836,1.836,0,0,1,177.605,103.768Zm-8.982-2.473h8.346V95.6h-8.346Z" transform="translate(-114.793 -64.337)" fill="#fff"/>
        <path id="Path_20" data-name="Path 20" d="M238.605,103.768h-9.619a1.838,1.838,0,0,1-1.836-1.836V94.956a1.836,1.836,0,0,1,1.836-1.836h9.619a1.838,1.838,0,0,1,1.836,1.836v6.976A1.836,1.836,0,0,1,238.605,103.768Zm-8.982-2.473h8.346V95.6h-8.346Z" transform="translate(-156.938 -64.337)" fill="#fff"/>
        <path id="Path_21" data-name="Path 21" d="M55.605,152.768H45.986a1.838,1.838,0,0,1-1.836-1.836v-6.976a1.836,1.836,0,0,1,1.836-1.836h9.619a1.838,1.838,0,0,1,1.836,1.836v6.976A1.836,1.836,0,0,1,55.605,152.768ZM46.623,150.3h8.346v-5.7H46.623Z" transform="translate(-30.503 -98.191)" fill="#fff"/>
        <path id="Path_22" data-name="Path 22" d="M116.605,152.768h-9.619a1.838,1.838,0,0,1-1.836-1.836v-6.976a1.836,1.836,0,0,1,1.836-1.836h9.619a1.838,1.838,0,0,1,1.836,1.836v6.976A1.836,1.836,0,0,1,116.605,152.768Zm-8.982-2.473h8.346v-5.7h-8.346Z" transform="translate(-72.648 -98.191)" fill="#fff"/>
        <path id="Path_23" data-name="Path 23" d="M177.605,152.768h-9.619a1.838,1.838,0,0,1-1.836-1.836v-6.976a1.836,1.836,0,0,1,1.836-1.836h9.619a1.838,1.838,0,0,1,1.836,1.836v6.976A1.836,1.836,0,0,1,177.605,152.768Zm-8.982-2.473h8.346v-5.7h-8.346Z" transform="translate(-114.793 -98.191)" fill="#fff"/>
        <path id="Path_24" data-name="Path 24" d="M238.605,152.768h-9.619a1.838,1.838,0,0,1-1.836-1.836v-6.976a1.836,1.836,0,0,1,1.836-1.836h9.619a1.838,1.838,0,0,1,1.836,1.836v6.976A1.836,1.836,0,0,1,238.605,152.768Zm-8.982-2.473h8.346v-5.7h-8.346Z" transform="translate(-156.938 -98.191)" fill="#fff"/>
        <path id="Path_25" data-name="Path 25" d="M55.605,201.768H45.986a1.838,1.838,0,0,1-1.836-1.836v-6.976a1.836,1.836,0,0,1,1.836-1.836h9.619a1.838,1.838,0,0,1,1.836,1.836v6.976A1.836,1.836,0,0,1,55.605,201.768ZM46.623,199.3h8.346v-5.7H46.623Z" transform="translate(-30.503 -132.045)" fill="#fff"/>
        <path id="Path_26" data-name="Path 26" d="M116.605,201.768h-9.619a1.838,1.838,0,0,1-1.836-1.836v-6.976a1.836,1.836,0,0,1,1.836-1.836h9.619a1.838,1.838,0,0,1,1.836,1.836v6.976A1.836,1.836,0,0,1,116.605,201.768Zm-8.982-2.473h8.346v-5.7h-8.346Z" transform="translate(-72.648 -132.045)" fill="#fff"/>
        <path id="Path_27" data-name="Path 27" d="M177.605,201.768h-9.619a1.838,1.838,0,0,1-1.836-1.836v-6.976a1.836,1.836,0,0,1,1.836-1.836h9.619a1.838,1.838,0,0,1,1.836,1.836v6.976A1.836,1.836,0,0,1,177.605,201.768Zm-8.982-2.473h8.346v-5.7h-8.346Z" transform="translate(-114.793 -132.045)" fill="#fff"/>
      </g>
    </g>
  </g>
</svg>
